# xmcd
#
# Track frame offsets:
#	150
#	22461
#	36262
#	49461
#	75936
#	91865
#	109715
#	122574
#	137052
#	147402
#	161580
#	181467
#	195942
#	206070
#	220695
#	234456
#	246316
#	258395
#	284873
#	298316
#
# Disc length: 4206
#
# Revision: 1
# Processed by: cddbd v1.5.1PL0 Copyright (c) Steve Scherf et al.
# Submitted via: CDex 1.51
# Normalized: r0:DSETVAR1,TDELIM( - )
#
DISCID=37106c14
DTITLE=Various Artist - Hot and Cool Jazz Vol.2 CD2
DYEAR=1900
DGENRE=Jazz
TTITLE0=Louis Armstrong - Skokiaan
TTITLE1=Count Basie - One O'Clock Jump
TTITLE2=Tommy Dorsey - Opus Nr. 1
TTITLE3=Vic Dickenson - Keeping Out Of Mischief Now
TTITLE4=Fats Waller - My Very Good Friend The Milkman
TTITLE5=Sidney Catlett/Ben Webster - Just A Riff
TTITLE6=Fletcher Henderson - Big Johns Special
TTITLE7=Artie Shaw/Billie Holiday - Any Old Time
TTITLE8=Wingy Manone - Limehouse Blues
TTITLE9=Duke Ellington - Black And Tan Fantasy
TTITLE10=Benny Goodman - Don't Be That Way
TTITLE11=Muggsy Spanier - Relaxin At The Touro
TTITLE12=Lionel Hampton - Hot Mallets
TTITLE13=Mound City Blue Blowers - Hello Lola
TTITLE14=Charlie Barnet - Sky Liner
TTITLE15=Gene Krupa/Roy Eldrige - After You've Gone
TTITLE16=Dizzy Gillespie - Groovin High
TTITLE17=Ramsey Lewis - The In Crowd
TTITLE18=Charlie Parker - Laura
TTITLE19=Kansas City Five - Good Mornin Blues
EXTD=
EXTT0=
EXTT1=
EXTT2=
EXTT3=
EXTT4=
EXTT5=
EXTT6=
EXTT7=
EXTT8=
EXTT9=
EXTT10=
EXTT11=
EXTT12=
EXTT13=
EXTT14=
EXTT15=
EXTT16=
EXTT17=
EXTT18=
EXTT19=
PLAYORDER=
